<svg id="Fox" data-name="Fox" xmlns="http://www.w3.org/2000/svg" width="300" height="300" viewBox="0 0 273.79 237.68"><defs><style>.cls-1{fill:#3c55a6;}.cls-2{fill:#2abaed;}.cls-3{fill:#231d5a;}.cls-4{fill:#dacee6;}.cls-5{fill:#231d5a;}.cls-6{fill:#bf4342;}.cls-7{fill:#fff;}</style></defs><polygon class="cls-1" points="0 7.31 49.84 120.28 128.92 63.8 0 7.31"/><polygon class="cls-1" points="138.89 63.8 217.97 120.28 273.79 0 138.89 63.8"/><polygon class="cls-2" points="132.24 66.08 132.67 126.55 94.81 92.75 132.24 66.08"/><polygon class="cls-2" points="136.06 66.08 136.06 125.43 171.62 92.54 136.06 66.08"/><polygon class="cls-1" points="94.81 96.31 88.05 140.72 105.5 140.72 128.92 128.42 94.81 96.31"/><polygon class="cls-3" points="91.37 95.75 50.01 125.43 57.48 159.49 84.4 140.72 91.37 95.75"/><polygon class="cls-1" points="172.45 96.31 137.39 128.75 161.48 140.72 179.42 140.72 172.45 96.31"/><polygon class="cls-3" points="175.94 95.75 182.91 140.72 209.66 159.49 217.3 125.43 175.94 95.75"/><polygon class="cls-4" points="108.48 144.37 120.28 159.49 120.28 138.06 108.48 144.37"/><polygon class="cls-4" points="147.36 159.49 158.41 144.7 147.36 138.06 147.36 159.49"/><polygon class="cls-5" points="133.65 134.73 101.67 204.68 115.96 215.47 128.92 206.67 138.89 206.67 150.19 215.47 165.63 204.68 133.65 134.73"/><polygon class="cls-1" points="150.41 163.92 167.02 196.92 170.23 161.37 166.8 164.75 150.41 163.92"/><polygon class="cls-1" points="174.88 159.49 171.56 199.47 207.56 163.81 187.4 148.77 181.64 149.3 174.88 159.49"/><polygon class="cls-4" points="209.99 167.68 174.77 203.24 222.4 203.24 209.99 167.68"/><polygon class="cls-1" points="85.72 149.3 80.3 149.3 59.92 163.7 96.14 199.58 92.59 158.93 85.72 149.3"/><polygon class="cls-4" points="57.37 167.68 45.41 201.35 93.48 203.57 57.37 167.68"/><polygon class="cls-1" points="97.24 161.81 100.34 196.92 117.29 164.75 107.27 164.03 100.9 164.75 97.24 161.81"/><polygon class="cls-6" points="129.47 209.88 119.28 217.63 133.65 228.38 147.53 218.19 137.78 209.88 129.47 209.88"/><polygon class="cls-5" points="99.79 208.66 131.47 232.14 131.47 237.68 112.42 231.26 98.68 217.97 99.79 208.66"/><polygon class="cls-5" points="135.68 232.48 135.68 237.68 155.94 230.93 169.12 217.63 167.24 209.22 135.68 232.48"/><polygon class="cls-3" points="152.88 161.81 170.23 158.82 182.19 146.2 160.93 143.21 152.88 161.81"/><polygon class="cls-3" points="84.73 146.2 97.69 159.49 114.38 161.81 106.33 142.54 84.73 146.2"/><polygon class="cls-7" points="100.73 154.58 104.27 150.55 105.31 155.77 100.73 154.58"/><polygon class="cls-7" points="161.83 155.77 163.12 150.57 166.45 154.72 161.83 155.77"/><polygon class="cls-2" points="169.23 68.06 212.74 98.72 243.44 33.43 169.23 68.06"/><polygon class="cls-2" points="35.81 37.42 60.46 98.72 99.56 68.07 35.81 37.42"/></svg>